<svg xmlns="http://www.w3.org/2000/svg" viewBox="0 0 64 64">
  <defs>
    <linearGradient id="molten" x1="14" y1="18" x2="49" y2="52" gradientUnits="userSpaceOnUse">
      <stop stop-color="#FFD86A"/>
      <stop offset=".52" stop-color="#F3B43F"/>
      <stop offset="1" stop-color="#E4862C"/>
    </linearGradient>
    <linearGradient id="liquid" x1="19" y1="39" x2="45" y2="52" gradientUnits="userSpaceOnUse">
      <stop stop-color="#F9C74F"/>
      <stop offset="1" stop-color="#D97720"/>
    </linearGradient>
  </defs>

  <rect width="64" height="64" rx="15" fill="#09090B"/>
  <path
    d="M23 12h18M27 12v14.2L15.7 45.1A5.9 5.9 0 0 0 20.8 54h22.4a5.9 5.9 0 0 0 5.1-8.9L37 26.2V12"
    fill="none"
    stroke="url(#molten)"
    stroke-width="4.5"
    stroke-linecap="round"
    stroke-linejoin="round"
  />
  <path
    d="M20.7 42.3h22.6l4 6.7a3.8 3.8 0 0 1-3.3 5.7H20a3.8 3.8 0 0 1-3.3-5.7l4-6.7Z"
    fill="url(#liquid)"
  />
  <circle cx="32" cy="34" r="3.4" fill="#FAFAFA"/>
  <path d="M32 28.3v-2.8M37.7 34h2.8M26.3 34h-2.8" stroke="#FAFAFA" stroke-width="2.2" stroke-linecap="round"/>
</svg>
